# This file uses meters as units for non-parametric coordinates.

v -98.231308 -3.188849 98.231308
v 98.231308 -3.188849 98.231308
v -98.231308 -3.188849 -98.231308
v 98.231308 -3.188849 -98.231308
v 3.088931 -3.188849 -3.088931
v 0.000000 -3.188849 -4.368408
v -3.088931 -3.188849 -3.088931
v -4.368408 -3.188849 0.000000
v -3.088931 -3.188849 3.088931
v 0.000000 -3.188849 4.368408
v 3.088931 -3.188849 3.088931
v 4.368409 -3.188849 0.000000
v 3.088931 2.269283 -3.088931
v 0.000000 2.269283 -4.368408
v -3.088931 2.269283 -3.088931
v -4.368408 2.269283 0.000000
v -3.088931 2.269283 3.088931
v 0.000000 2.269283 4.368408
v 3.088931 2.269283 3.088931
v 4.368409 2.269283 0.000000
v 0.000000 -3.188849 0.000000
v 0.000000 2.269283 0.000000
v -16.330051 3.284839 2.768900
v -3.088932 -3.188849 2.768900
v -16.330051 3.284839 -2.768900
v -3.088932 -3.188849 -2.768900
v 2.768900 3.284839 16.330051
v 2.768900 -3.188849 3.088932
v -2.768900 3.284839 16.330051
v -2.768900 -3.188849 3.088932
v 16.330051 3.284839 -2.768900
v 3.088932 -3.188849 -2.768900
v 16.330051 3.284839 2.768900
v 3.088932 -3.188849 2.768900
v -2.768900 3.284839 -16.330051
v -2.768900 -3.188849 -3.088932
v 2.768900 3.284839 -16.330051
v 2.768900 -3.188849 -3.088932
vt 0.000000 0.000000
vt 1.000000 0.000000
vt 0.000000 1.000000
vt 1.000000 1.000000
vt 0.375000 0.312500
vt 0.406250 0.312500
vt 0.406250 0.688440
vt 0.375000 0.688440
vt 0.437500 0.312500
vt 0.437500 0.688440
vt 0.468750 0.312500
vt 0.468750 0.688440
vt 0.500000 0.312500
vt 0.500000 0.688440
vt 0.531250 0.312500
vt 0.531250 0.688440
vt 0.562500 0.312500
vt 0.562500 0.688440
vt 0.593750 0.312500
vt 0.593750 0.688440
vt 0.625000 0.312500
vt 0.625000 0.688440
vt 0.500000 0.000000
vt 0.610485 0.045765
vt 0.500000 0.150000
vt 0.389515 0.045765
vt 0.343750 0.156250
vt 0.389515 0.266735
vt 0.500000 0.312500
vt 0.610485 0.266735
vt 0.656250 0.156250
vt 0.610485 0.954235
vt 0.500000 1.000000
vt 0.500000 0.837500
vt 0.389515 0.954235
vt 0.343750 0.843750
vt 0.389515 0.733265
vt 0.500000 0.687500
vt 0.610485 0.733265
vt 0.656250 0.843750
vt 0.000000 0.000000
vt 1.000000 0.000000
vt 1.000000 1.000000
vt 0.000000 1.000000
vt 0.000000 0.000000
vt 1.000000 0.000000
vt 1.000000 1.000000
vt 0.000000 1.000000
vt 0.000000 0.000000
vt 1.000000 0.000000
vt 1.000000 1.000000
vt 0.000000 1.000000
vt 0.000000 0.000000
vt 1.000000 0.000000
vt 1.000000 1.000000
vt 0.000000 1.000000
vn 0.000000 1.000000 0.000000
vn 0.000000 1.000000 0.000000
vn 0.000000 1.000000 0.000000
vn 0.000000 1.000000 0.000000
vn 0.382683 0.000000 -0.923880
vn 0.382683 0.000000 -0.923880
vn 0.382683 0.000000 -0.923880
vn 0.382683 0.000000 -0.923880
vn -0.382683 0.000000 -0.923880
vn -0.382683 0.000000 -0.923880
vn -0.382683 0.000000 -0.923880
vn -0.382683 0.000000 -0.923880
vn -0.923880 0.000000 -0.382683
vn -0.923880 0.000000 -0.382683
vn -0.923880 0.000000 -0.382683
vn -0.923880 0.000000 -0.382683
vn -0.923880 0.000000 0.382683
vn -0.923880 0.000000 0.382683
vn -0.923880 0.000000 0.382683
vn -0.923880 0.000000 0.382683
vn -0.382683 0.000000 0.923880
vn -0.382683 0.000000 0.923880
vn -0.382683 0.000000 0.923880
vn -0.382683 0.000000 0.923880
vn 0.382683 0.000000 0.923880
vn 0.382683 0.000000 0.923880
vn 0.382683 0.000000 0.923880
vn 0.382683 0.000000 0.923880
vn 0.923880 0.000000 0.382683
vn 0.923880 0.000000 0.382683
vn 0.923880 0.000000 0.382683
vn 0.923880 0.000000 0.382683
vn 0.923880 0.000000 -0.382684
vn 0.923880 0.000000 -0.382684
vn 0.923880 0.000000 -0.382684
vn 0.923880 0.000000 -0.382684
vn 0.000000 -1.000000 0.000000
vn 0.000000 -1.000000 0.000000
vn 0.000000 -1.000000 0.000000
vn 0.000000 -1.000000 0.000000
vn 0.000000 -1.000000 0.000000
vn 0.000000 -1.000000 0.000000
vn 0.000000 -1.000000 0.000000
vn 0.000000 -1.000000 0.000000
vn 0.000000 -1.000000 0.000000
vn 0.000000 1.000000 0.000000
vn 0.000000 1.000000 0.000000
vn 0.000000 1.000000 -0.000000
vn 0.000000 1.000000 -0.000000
vn 0.000000 1.000000 -0.000000
vn 0.000000 1.000000 0.000000
vn 0.000000 1.000000 0.000000
vn 0.000000 1.000000 0.000000
vn 0.000000 1.000000 0.000000
vn 0.439224 0.898378 0.000000
vn 0.439224 0.898378 0.000000
vn 0.439224 0.898378 0.000000
vn 0.439224 0.898378 0.000000
vn 0.000000 0.898378 -0.439224
vn 0.000000 0.898378 -0.439224
vn 0.000000 0.898378 -0.439224
vn 0.000000 0.898378 -0.439224
vn -0.439224 0.898378 0.000000
vn -0.439224 0.898378 0.000000
vn -0.439224 0.898378 0.000000
vn -0.439224 0.898378 0.000000
vn 0.000000 0.898378 0.439224
vn 0.000000 0.898378 0.439224
vn 0.000000 0.898378 0.439224
vn 0.000000 0.898378 0.439224
s off
f 1/1/1 2/2/2 4/4/3 3/3/4
f 5/5/5 6/6/6 14/7/7 13/8/8
f 6/6/9 7/9/10 15/10/11 14/7/12
f 7/9/13 8/11/14 16/12/15 15/10/16
f 8/11/17 9/13/18 17/14/19 16/12/20
f 9/13/21 10/15/22 18/16/23 17/14/24
f 10/15/25 11/17/26 19/18/27 18/16/28
f 11/17/29 12/19/30 20/20/31 19/18/32
f 12/19/33 5/21/34 13/22/35 20/20/36
s 1
f 6/23/37 5/24/38 21/25/39
f 7/26/40 6/23/37 21/25/39
f 8/27/41 7/26/40 21/25/39
f 9/28/42 8/27/41 21/25/39
f 10/29/43 9/28/42 21/25/39
f 11/30/44 10/29/43 21/25/39
f 12/31/45 11/30/44 21/25/39
f 5/24/38 12/31/45 21/25/39
s 2
f 13/32/46 14/33/47 22/34/48
f 14/33/47 15/35/49 22/34/48
f 15/35/49 16/36/50 22/34/48
f 16/36/50 17/37/51 22/34/48
f 17/37/51 18/38/52 22/34/48
f 18/38/52 19/39/53 22/34/48
f 19/39/53 20/40/54 22/34/48
f 20/40/54 13/32/46 22/34/48
s off
f 23/41/55 24/42/56 26/43/57 25/44/58
f 27/45/59 28/46/60 30/47/61 29/48/62
f 31/49/63 32/50/64 34/51/65 33/52/66
f 35/53/67 36/54/68 38/55/69 37/56/70
